<?xml version="1.0" encoding="UTF-8" standalone="no"?>
<!-- Created with Inkscape (http://www.inkscape.org/) -->

<svg
   width="249.99998"
   height="250.00002"
   viewBox="0 0 66.145828 66.145837"
   version="1.1"
   id="svg5"
   sodipodi:docname="icon.svg"
   xmlns:inkscape="http://www.inkscape.org/namespaces/inkscape"
   xmlns:sodipodi="http://sodipodi.sourceforge.net/DTD/sodipodi-0.dtd"
   xmlns="http://www.w3.org/2000/svg"
   xmlns:svg="http://www.w3.org/2000/svg">
  <sodipodi:namedview
     id="namedview7"
     pagecolor="#ffffff"
     bordercolor="#000000"
     borderopacity="0.25"
     inkscape:showpageshadow="2"
     inkscape:pageopacity="0.0"
     inkscape:pagecheckerboard="0"
     inkscape:deskcolor="#d1d1d1"
     inkscape:document-units="px"
     showgrid="false" />
  <defs
     id="defs2" />
  <g
     inkscape:label="Layer 1"
     inkscape:groupmode="layer"
     id="layer1">
    <ellipse
       style="fill:#ffffff;fill-rule:evenodd;stroke:#000000;stroke-width:0;stroke-linecap:round"
       id="path341"
       cx="33.072914"
       cy="33.072918"
       rx="33.072914"
       ry="33.072918" />
    <path
       d="m 52.670368,20.539659 q 0,1.215347 -0.405114,2.557291 -0.405117,1.341943 -1.240666,2.658568 -0.835551,1.291307 -2.152174,2.506654 -1.291305,1.215343 -3.114326,2.177493 -1.823017,0.962149 -4.152429,1.62046 -2.329415,0.632995 -5.241182,0.810234 1.772379,0.65831 2.962407,1.696419 1.190026,1.038106 1.974937,2.329412 0.81023,1.265985 1.265984,2.683888 0.481076,1.417903 0.810233,2.78517 0.329155,1.367262 0.582352,2.633246 0.278516,1.240666 0.632992,2.202815 0.379797,0.936831 0.93683,1.519182 0.557033,0.557036 1.493864,0.557036 0.860867,0 1.873658,-0.278516 1.038108,-0.303845 2.101532,-0.835549 1.08875,-0.531714 2.126856,-1.265985 1.063428,-0.734273 1.974939,-1.620463 l 2.937085,4.962662 q 0,-0.02543 -0.481076,0.329157 -0.481073,0.329158 -1.341943,0.860871 -0.860869,0.506392 -2.050897,1.114065 -1.164706,0.632993 -2.582609,1.164706 -1.417903,0.531714 -3.013045,0.88619 -1.569822,0.354476 -3.215602,0.354476 -1.848339,0 -3.164964,-0.911509 -1.291303,-0.911508 -2.202814,-2.405371 -0.911508,-1.493864 -1.519183,-3.39284 Q 37.85834,46.315123 37.402586,44.314868 36.946832,42.31461 36.541715,40.415633 36.16192,38.491335 35.680847,36.997471 35.199772,35.503609 34.54146,34.592099 33.883149,33.680591 32.895678,33.680591 h -1.595141 q -0.506392,5.545014 -1.265985,9.950644 -0.75959,4.380308 -2.025576,7.443993 -1.240666,3.063683 -3.139643,4.684146 -1.873657,1.620461 -4.608186,1.620461 -2.025577,0 -3.721997,-0.784912 Q 14.868049,55.835327 13.500786,54.493384 12.158843,53.15144 11.146052,51.353741 10.133262,49.556043 9.4496325,47.505147 8.7913184,45.42893 8.4368425,43.226115 8.1076854,41.0233 8.1076854,38.845807 q 0,-3.924553 0.9621494,-7.671872 0.9874682,-3.772634 2.8104882,-7.114836 1.848339,-3.342202 4.456271,-6.127368 2.607928,-2.810488 5.848851,-4.836063 3.26624,-2.050898 7.089517,-3.1902822 3.848594,-1.1393872 8.127624,-1.1393872 1.89898,0 3.772637,0.3544758 1.873658,0.3544759 3.570078,1.0381056 1.69642,0.683633 3.139642,1.696423 1.468545,1.012787 2.506653,2.329412 1.063428,1.291303 1.671098,2.886445 0.607674,1.595141 0.607674,3.468799 z M 36.946832,14.437613 q -4.177751,0 -7.469312,1.164706 -3.266243,1.164706 -5.747574,3.139642 -2.481331,1.974936 -4.228392,4.582867 -1.747057,2.607929 -2.835807,5.469057 -1.088746,2.861126 -1.595141,5.798212 -0.481073,2.937085 -0.481073,5.595655 0,2.050895 0.354476,4.127113 0.354476,2.050895 1.114068,3.696675 0.759589,1.645781 1.949617,2.683888 1.215344,1.012789 2.911764,1.012789 0.860871,0 1.519181,-0.658314 0.658315,-0.68363 1.16471,-1.797698 0.506392,-1.139387 0.886189,-2.607929 0.379795,-1.493862 0.632993,-3.089004 0.253188,-1.595141 0.405114,-3.215601 0.151906,-1.620464 0.22789,-3.038367 0.101282,-1.417904 0.12661,-2.506651 0.02542,-1.114065 0.02542,-1.69642 -1.974939,-0.936826 -3.013045,-1.74706 -1.01279,-0.81023 -1.01279,-1.873658 0,-0.253188 0.02542,-0.607673 0.05063,-0.354475 0.177235,-0.658311 0.12661,-0.303844 0.354475,-0.506395 0.253188,-0.22786 0.658314,-0.22786 0.177236,0 0.708952,0.07595 0.531714,0.05063 1.114065,0.151907 0.582355,0.07595 1.063429,0.151907 0.506394,0.05066 0.658313,0.05066 l 0.02543,-0.531714 q 0.02543,-0.405116 0.07595,-1.114068 0.07595,-0.708952 0.227892,-1.519182 0.151907,-0.810231 0.430432,-1.62046 0.303844,-0.835552 0.784911,-1.493864 0.481077,-0.683632 1.139387,-1.088749 0.683633,-0.430432 1.645783,-0.430432 1.265984,0 1.671101,0.582351 0.430432,0.557033 0.430432,1.443222 v 0.227892 q -0.02543,0.962149 -0.303844,2.55729 -0.253189,1.569823 -0.481074,3.646038 4.127111,-0.07595 6.810999,-0.810231 2.68389,-0.759592 4.25371,-1.898979 1.569823,-1.139384 2.202815,-2.481331 0.632992,-1.367264 0.632992,-2.633248 0,-1.240665 -0.607673,-2.380052 -0.582351,-1.139388 -1.747057,-2.000259 -1.164707,-0.886189 -2.886448,-1.392581 -1.721739,-0.531714 -4.000513,-0.531714 z"
       id="path1128"
       style="font-size:16.7266px;font-family:Pacifico;-inkscape-font-specification:'Pacifico, Normal';fill-rule:evenodd;stroke:#000000;stroke-width:0;stroke-linecap:round" />
  </g>
</svg>
