<?xml version="1.0" encoding="UTF-8" standalone="no"?>
<!-- Created with Inkscape (http://www.inkscape.org/) -->

<svg
   width="249.99998"
   height="250.00002"
   viewBox="0 0 66.145828 66.145837"
   version="1.1"
   id="svg5"
   xmlns:inkscape="http://www.inkscape.org/namespaces/inkscape"
   xmlns:sodipodi="http://sodipodi.sourceforge.net/DTD/sodipodi-0.dtd"
   xmlns="http://www.w3.org/2000/svg"
   xmlns:svg="http://www.w3.org/2000/svg">
  <sodipodi:namedview
     id="namedview7"
     pagecolor="#ffffff"
     bordercolor="#000000"
     borderopacity="0.25"
     inkscape:showpageshadow="2"
     inkscape:pageopacity="0.0"
     inkscape:pagecheckerboard="0"
     inkscape:deskcolor="#d1d1d1"
     inkscape:document-units="px"
     showgrid="false" />
  <defs
     id="defs2">
    <inkscape:path-effect
       effect="bend_path"
       id="path-effect1201"
       is_visible="true"
       lpeversion="1"
       bendpath="m 12.830227,22.91754 c 11.344662,-2.93498 25.145616,-2.468803 40.485379,0"
       prop_scale="1"
       scale_y_rel="false"
       vertical="false"
       hide_knot="false"
       bendpath-nodetypes="cc" />
  </defs>
  <g
     inkscape:label="Layer 1"
     inkscape:groupmode="layer"
     id="layer1">
    <g
       id="g1980"
       transform="matrix(1.5018796,0,0,1.5018796,-16.598621,-16.598621)">
      <path
         id="path1057"
         style="font-size:16.7266px;font-family:Pacifico;-inkscape-font-specification:'Pacifico, Normal';fill:#c36e00;fill-opacity:1;fill-rule:evenodd;stroke:#000000;stroke-width:0;stroke-linecap:round"
         d="m 21.210047,13.50262 c -1.015745,0.111599 -1.967896,0.357329 -2.843231,0.731194 -0.869484,0.373051 -1.649676,0.847577 -2.333206,1.416172 -0.678774,0.56235 -1.253763,1.202907 -1.722291,1.916667 -0.469795,0.708652 -0.823343,1.46203 -1.064562,2.25607 -0.235683,0.792899 -0.35348,1.609319 -0.36247,2.448648 -0.005,0.832711 0.105186,1.656798 0.318034,2.473772 0.118073,0.453201 0.270435,0.900035 0.45411,1.341445 0.188658,0.440027 0.402121,0.859583 0.638464,1.259066 0.239882,0.392913 0.501879,0.752331 0.78442,1.079154 0.282561,0.326846 0.581081,0.600424 0.895352,0.821281 0.319081,0.219796 0.648752,0.374839 0.991646,0.465791 0.348807,0.09525 0.708778,0.104939 1.084276,0.03031 0.50671,-0.100703 0.904301,-0.348787 1.200201,-0.751594 0.300308,-0.403129 0.521686,-0.94598 0.663814,-1.630772 0.146946,-0.685061 0.232206,-1.503831 0.253412,-2.452685 0.02043,-0.953948 0.0049,-2.028046 -0.04815,-3.216915 0.169746,-0.02323 0.339581,-0.04583 0.509503,-0.06779 0.210379,-0.02719 0.397907,0.04785 0.561181,0.224415 0.163338,0.176629 0.314458,0.417505 0.452465,0.72325 0.138013,0.305758 0.269082,0.658884 0.393637,1.059243 0.129273,0.394628 0.263067,0.798916 0.401962,1.214692 0.138779,0.415419 0.290534,0.821271 0.454387,1.218328 0.163271,0.391614 0.350324,0.738031 0.560668,1.039084 0.210385,0.301107 0.449938,0.53814 0.719114,0.711189 0.27425,0.172712 0.59024,0.245566 0.95139,0.220355 0.321644,-0.02245 0.633686,-0.08032 0.937736,-0.173392 0.309029,-0.09335 0.601208,-0.2026 0.876629,-0.328686 0.275442,-0.126094 0.52689,-0.260396 0.754342,-0.40385 0.186322,-0.110647 0.345479,-0.209606 0.491806,-0.304169 0.316744,0.178951 0.686431,0.264483 1.11274,0.259003 0.310169,-0.004 0.601824,-0.0626 0.876971,-0.177486 0.275147,-0.114891 0.528694,-0.26934 0.760794,-0.463883 0.237231,-0.194495 0.448024,-0.424058 0.632357,-0.688601 0.189528,-0.264472 0.350206,-0.547703 0.48057,-0.850605 0.135619,-0.302816 0.24094,-0.617221 0.315604,-0.942777 0.07466,-0.325568 0.11575,-0.648624 0.121643,-0.970119 0.0059,-0.321434 -0.02867,-0.657446 -0.104025,-1.007569 -0.06985,-0.355512 -0.181195,-0.692538 -0.335762,-1.010657 0.02223,-0.02969 0.04448,-0.05938 0.06675,-0.08906 0.195189,0.133338 0.428815,0.300991 0.697167,0.502894 0.26875,0.196664 0.538256,0.408532 0.808541,0.635007 0.191354,0.157297 0.373371,0.317682 0.547287,0.480808 -0.175017,0.349914 -0.316308,0.709062 -0.424865,1.077858 -0.12567,0.426934 -0.193515,0.845102 -0.205605,1.253899 -0.01064,0.359722 0.03516,0.686145 0.135805,0.978813 0.100835,0.287274 0.238585,0.535465 0.413028,0.744382 0.174671,0.203503 0.375717,0.364934 0.604007,0.484739 0.23372,0.114604 0.474454,0.178344 0.722952,0.191555 0.232969,0.01238 0.467941,-0.01534 0.706144,-0.08327 0.238196,-0.06792 0.46788,-0.157776 0.689458,-0.269301 0.227135,-0.11664 0.437782,-0.247131 0.631891,-0.392464 0.194129,-0.145348 0.36029,-0.289546 0.49763,-0.43298 0.13698,0.45422 0.311044,0.807772 0.523037,1.060444 0.212486,0.247309 0.489672,0.385264 0.834203,0.414912 0.287165,0.02471 0.581003,-0.02335 0.882483,-0.143915 0.301477,-0.120563 0.588866,-0.274493 0.862292,-0.462229 0.02618,-0.01798 0.05174,-0.0363 0.07749,-0.05452 0.0148,0.09284 0.03531,0.181618 0.06129,0.2661 0.05816,0.16532 0.147741,0.303673 0.269105,0.415028 0.121933,0.105926 0.290205,0.169571 0.50535,0.192131 0.167926,0.01761 0.324312,-0.0041 0.46915,-0.06562 0.150658,-0.06636 0.290967,-0.205257 0.421014,-0.416807 0.452471,-0.724964 0.812235,-1.302499 1.105289,-1.784799 0.292223,-0.475944 0.537938,-0.868746 0.724842,-1.163371 0.187816,-0.296065 0.334982,-0.523748 0.4352,-0.675676 0.10645,-0.152512 0.197102,-0.265452 0.272211,-0.338943 0.04066,0.005 0.08132,0.01001 0.121979,0.01504 -0.148737,0.489059 -0.279293,0.947394 -0.391766,1.374852 -0.04955,0.181492 -0.09936,0.365965 -0.149406,0.552931 -0.04938,0.181511 -0.09485,0.355133 -0.136722,0.52102 -0.04188,0.16589 -0.07612,0.313329 -0.102602,0.442478 -0.02649,0.129146 -0.04372,0.22926 -0.05229,0.299902 -0.02045,0.168508 -0.03377,0.343637 -0.03971,0.524924 -5.91e-4,0.181916 0.01617,0.35212 0.05041,0.510684 0.04019,0.153772 0.104806,0.285613 0.192904,0.395663 0.08878,0.104629 0.217399,0.16695 0.386089,0.187938 0.221418,0.02755 0.421088,0.01429 0.599864,-0.04016 0.179465,-0.05988 0.35311,-0.194851 0.520932,-0.40481 0.722995,-1.33257 1.458952,-2.660334 2.205839,-3.98289 0.04058,0.0057 0.08116,0.01139 0.121742,0.01711 -0.09855,0.383657 -0.188126,0.765866 -0.269329,1.146503 -0.07505,0.375957 -0.136452,0.734598 -0.18457,1.075674 -0.05117,0.362738 -0.08292,0.700767 -0.09458,1.013758 -0.0063,0.313728 0.01434,0.590041 0.06158,0.828368 0.04725,0.238348 0.124856,0.431206 0.233201,0.578754 0.11443,0.142897 0.267173,0.227457 0.457604,0.254358 0.386177,0.05455 0.740112,0.05315 1.06286,-0.0048 0.323543,-0.06331 0.625013,-0.156688 0.904821,-0.280526 0.285946,-0.128437 0.559029,-0.274994 0.819207,-0.439482 0.266343,-0.169063 0.531994,-0.329148 0.796734,-0.481056 0.05652,-0.641479 0.112733,-1.283111 0.168642,-1.924893 -0.307497,0.271555 -0.611688,0.510848 -0.912873,0.718448 -0.129323,0.09051 -0.263291,0.177986 -0.402208,0.261756 -0.138079,0.07838 -0.277055,0.145319 -0.416901,0.20161 -0.139843,0.05628 -0.274963,0.09987 -0.405157,0.130244 -0.130195,0.03037 -0.251053,0.03726 -0.363145,0.02081 -0.106743,-0.01566 -0.183521,-0.12049 -0.230888,-0.315041 -0.04736,-0.194513 -0.04981,-0.437883 -0.0064,-0.729556 0.05553,-0.37276 0.12682,-0.721262 0.213695,-1.045226 0.08768,-0.329348 0.18015,-0.652307 0.277371,-0.969101 0.09723,-0.316779 0.190099,-0.639595 0.278458,-0.968638 0.08835,-0.329031 0.160366,-0.679636 0.21649,-1.052138 0.0366,-0.242929 -0.02501,-0.443087 -0.186168,-0.599924 -0.154841,-0.16138 -0.361471,-0.261353 -0.61911,-0.299401 -0.230224,-0.034 -0.435988,0.01357 -0.616728,0.142085 -0.179959,0.123098 -0.364827,0.281152 -0.554121,0.475207 -0.195475,0.198639 -0.409195,0.431349 -0.640631,0.697383 -0.225926,0.266726 -0.441204,0.521959 -0.645659,0.764666 -0.198789,0.243154 -0.368281,0.452963 -0.50706,0.627268 -0.138389,0.169299 -0.214095,0.261587 -0.227066,0.276436 -0.02546,-0.03653 -0.05093,-0.07306 -0.07642,-0.109591 0.0014,-0.01085 0.0071,-0.03197 0.01682,-0.0638 0.0096,-0.03177 0.03643,-0.108274 0.08001,-0.229408 0.06163,-0.174039 0.125361,-0.342515 0.191215,-0.504912 0.06657,-0.167819 0.130846,-0.338516 0.192922,-0.512408 0.06753,-0.173158 0.128028,-0.352915 0.180836,-0.539047 0.05281,-0.186128 0.09344,-0.384663 0.121879,-0.596146 0.03281,-0.244023 -0.0242,-0.442484 -0.171936,-0.594764 -0.146981,-0.157666 -0.336498,-0.25177 -0.568036,-0.281952 -0.248082,-0.03234 -0.472814,0.01357 -0.67317,0.137212 -0.194853,0.12435 -0.385749,0.287739 -0.5726,0.490886 -0.192321,0.202442 -0.396902,0.439873 -0.612764,0.711753 -0.215219,0.266458 -0.417357,0.523776 -0.606476,0.771836 -0.157341,0.21326 -0.314134,0.426753 -0.47036,0.640476 -0.124847,0.178655 -0.193348,0.275337 -0.206021,0.290435 -0.02611,-0.03608 -0.05224,-0.07215 -0.07838,-0.108223 0.09282,-0.33691 0.181769,-0.662581 0.267351,-0.978212 0.03726,-0.133547 0.07236,-0.270086 0.104872,-0.409678 0.03861,-0.144428 0.0736,-0.283788 0.105598,-0.417941 0.03197,-0.134143 0.05796,-0.260264 0.07718,-0.379326 0.0247,-0.118443 0.04209,-0.224236 0.05269,-0.316735 0.01934,-0.168667 0.02943,-0.302304 0.02957,-0.401515 1.74e-4,-0.09919 -0.02759,-0.176929 -0.08284,-0.232834 -0.0491,-0.06071 -0.134026,-0.103615 -0.254557,-0.128152 -0.114305,-0.02933 -0.276652,-0.0555 -0.487025,-0.07839 -0.138449,-0.01507 -0.253211,-0.01646 -0.344149,-0.0041 -0.09037,0.0069 -0.172194,0.03667 -0.244926,0.08961 -0.06662,0.04807 -0.1302,0.121621 -0.190713,0.219942 -0.06051,0.09831 -0.127215,0.231794 -0.200268,0.400427 -0.07248,0.163159 -0.155513,0.374717 -0.248482,0.634925 -0.09298,0.260234 -0.188205,0.547875 -0.28587,0.862742 -0.09221,0.315443 -0.185809,0.64734 -0.280413,0.995615 -0.08864,0.343311 -0.170664,0.681693 -0.246711,1.015275 -0.04532,0.198781 -0.08661,0.391556 -0.124883,0.579312 -0.01951,0.0183 -0.03921,0.03685 -0.05865,0.05482 -0.124505,0.114363 -0.256843,0.225233 -0.396162,0.332957 -0.133474,0.102785 -0.267853,0.194852 -0.403997,0.275713 -0.130823,0.08135 -0.259834,0.146256 -0.387234,0.195256 -0.126917,0.04355 -0.24623,0.06044 -0.357588,0.05072 -0.148437,-0.01295 -0.24066,-0.09222 -0.276628,-0.238078 -0.0302,-0.150795 -0.0346,-0.354158 -0.01337,-0.610419 0.02485,-0.299896 0.07773,-0.61437 0.159264,-0.942442 0.082,-0.333576 0.169715,-0.663871 0.262995,-0.99096 0.09377,-0.332628 0.181228,-0.654168 0.263153,-0.965803 0.08238,-0.317031 0.135724,-0.606141 0.15848,-0.867914 0.0147,-0.169046 0.0097,-0.304333 -0.01485,-0.405357 -0.01908,-0.100533 -0.05389,-0.180151 -0.104458,-0.239395 -0.05058,-0.05924 -0.111379,-0.100376 -0.181888,-0.12276 -0.0705,-0.02238 -0.147003,-0.03676 -0.22997,-0.04356 -0.06084,-0.005 -0.124943,-0.0074 -0.191768,-0.0072 -0.0609,-0.0049 -0.1218,-0.0098 -0.182704,-0.01457 -0.07191,-0.0057 -0.143656,-0.01412 -0.215156,-0.02519 -0.06555,-0.01604 -0.130302,-0.04038 -0.194661,-0.07269 -0.06436,-0.03229 -0.116394,-0.08014 -0.156248,-0.14343 -0.03985,-0.06329 -0.08273,-0.126421 -0.128278,-0.190072 -0.03959,-0.0687 -0.09378,-0.130265 -0.162504,-0.184533 -0.06872,-0.05427 -0.166622,-0.08575 -0.294583,-0.09459 -0.38389,-0.0265 -0.76833,0.03096 -1.150392,0.172475 -0.376186,0.13639 -0.73746,0.332491 -1.082892,0.588454 -0.345465,0.255987 -0.666224,0.560859 -0.961111,0.914338 -0.112895,0.137977 -0.219452,0.280698 -0.320992,0.42686 -0.140988,-0.171004 -0.287721,-0.339377 -0.440674,-0.505449 -0.327242,-0.361061 -0.689581,-0.680535 -1.086369,-0.95733 -0.39111,-0.282097 -0.817319,-0.505415 -1.27698,-0.668288 -0.45953,-0.168296 -0.955641,-0.251795 -1.485041,-0.249079 -0.618579,0.0032 -1.175054,0.123716 -1.663814,0.35797 -0.488921,0.228838 -0.896736,0.543723 -1.222583,0.941673 -0.320697,0.392486 -0.556969,0.853916 -0.710806,1.382671 -0.154117,0.523426 -0.213911,1.083073 -0.184318,1.679434 0.02152,0.433602 0.0905,0.859492 0.204172,1.278077 0.06372,0.224283 0.142393,0.435494 0.235081,0.633768 -0.124557,0.08862 -0.250111,0.1708 -0.378125,0.244789 -0.209802,0.123982 -0.417173,0.224526 -0.622553,0.301164 -0.200602,0.07093 -0.387185,0.111614 -0.560126,0.122612 -0.188153,0.01197 -0.341827,-0.03693 -0.46248,-0.148053 -0.121006,-0.116491 -0.227654,-0.271681 -0.319777,-0.465927 -0.08742,-0.20002 -0.170007,-0.430269 -0.247852,-0.690595 -0.07311,-0.266142 -0.15567,-0.54258 -0.247472,-0.828793 -0.09179,-0.286193 -0.200195,-0.576746 -0.326429,-0.870609 -0.120971,-0.29436 -0.279081,-0.568868 -0.47463,-0.823245 -0.190672,-0.260226 -0.423084,-0.488875 -0.698563,-0.684696 -0.27541,-0.195773 -0.611599,-0.343473 -1.007103,-0.440475 0.619705,-0.108242 1.173202,-0.24989 1.663525,-0.429958 0.489667,-0.185403 0.924989,-0.393237 1.306706,-0.627419 0.381627,-0.234124 0.706827,-0.488319 0.975071,-0.765234 0.273779,-0.277226 0.496816,-0.558244 0.668302,-0.844279 0.171183,-0.291402 0.296663,-0.582884 0.374451,-0.874596 0.07779,-0.291713 0.111756,-0.567454 0.100406,-0.827835 -0.0175,-0.401381 -0.102815,-0.769555 -0.257808,-1.104419 -0.154955,-0.334793 -0.362249,-0.634158 -0.623201,-0.896756 -0.255322,-0.268296 -0.560912,-0.500167 -0.917942,-0.693953 -0.3511,-0.194174 -0.732459,-0.349038 -1.143191,-0.463385 -0.410715,-0.114343 -0.842263,-0.188879 -1.292809,-0.222767 -0.450537,-0.03389 -0.902131,-0.02594 -1.35287,0.02358 -5e-6,8e-6 -10e-6,1.6e-5 -1.4e-5,2.3e-5 z m 0.0377,1.826806 c 0.528479,-0.05893 0.998576,-0.04888 1.407232,0.02683 0.408293,0.07034 0.754343,0.190145 1.037283,0.357229 0.282591,0.16173 0.498936,0.360309 0.649437,0.593707 0.156307,0.233011 0.242631,0.482605 0.261165,0.747623 0.01892,0.27053 -0.03294,0.55639 -0.153358,0.85891 -0.120846,0.297209 -0.346325,0.580335 -0.673946,0.852258 -0.327927,0.272178 -0.777925,0.515333 -1.350625,0.736677 -0.574404,0.216389 -1.305782,0.382901 -2.2045,0.518068 -0.0085,-0.446867 -0.0064,-0.840404 0.0065,-1.180715 0.01778,-0.346626 0.01726,-0.621622 -0.0033,-0.82674 l -0.0093,-0.07239 c -0.02414,-0.188024 -0.09231,-0.33494 -0.20496,-0.440434 -0.10751,-0.111486 -0.304909,-0.148391 -0.59148,-0.108783 -0.217774,0.0301 -0.397496,0.10202 -0.538523,0.215635 -0.136122,0.107447 -0.247151,0.241969 -0.333249,0.402913 -0.08692,0.155602 -0.150443,0.326787 -0.190684,0.513938 -0.03543,0.18091 -0.05639,0.359915 -0.06295,0.536423 -0.0066,0.176479 -0.0061,0.340845 0.0011,0.493253 0.01273,0.1514 0.02288,0.270553 0.03097,0.356875 0.0063,0.05661 0.01265,0.11321 0.01899,0.169815 -0.03331,0.0053 -0.10556,0.01168 -0.217902,0.01891 -0.107469,0.001 -0.226277,0.004 -0.355938,0.0093 -0.130607,-6.4e-5 -0.255195,0.0046 -0.373033,0.01406 -0.118646,0.0041 -0.197336,0.0099 -0.235868,0.01676 -0.08837,0.01563 -0.155923,0.05241 -0.202369,0.110337 -0.0419,0.05162 -0.0706,0.111869 -0.08639,0.18086 -0.0158,0.069 -0.02245,0.141885 -0.01968,0.218531 0.0082,0.07564 0.01713,0.139989 0.02695,0.193288 0.04124,0.223987 0.186671,0.401126 0.433843,0.533111 0.253139,0.131307 0.605914,0.25833 1.058566,0.387676 0.02012,0.123119 0.04658,0.302427 0.07968,0.5387 0.03233,0.230899 0.06228,0.497626 0.09036,0.800608 0.03335,0.302111 0.06257,0.626172 0.088,0.973567 0.02542,0.347245 0.04054,0.693958 0.04588,1.039193 0.0053,0.345229 -0.003,0.681842 -0.02446,1.009927 -0.02238,0.322709 -0.06194,0.613069 -0.11867,0.870774 -0.05767,0.252394 -0.136857,0.462176 -0.237729,0.629575 -0.101865,0.162113 -0.234597,0.258799 -0.399629,0.290713 -0.325179,0.06288 -0.624126,0.01348 -0.900988,-0.150161 -0.27282,-0.169887 -0.520339,-0.410902 -0.742193,-0.723205 -0.221797,-0.312225 -0.416118,-0.67479 -0.581421,-1.088239 -0.16653,-0.418878 -0.299307,-0.842514 -0.39523,-1.27183 -0.124293,-0.556294 -0.206189,-1.153599 -0.241337,-1.790735 -0.02987,-0.638507 0.006,-1.282568 0.113865,-1.932097 0.107879,-0.64958 0.299961,-1.287226 0.580488,-1.910988 0.280493,-0.623688 0.665607,-1.194698 1.15746,-1.708642 0.491662,-0.513746 1.098655,-0.952518 1.816712,-1.30838 0.723771,-0.356643 1.576077,-0.594615 2.545186,-0.702684 z m 8.736325,5.480464 c 0.169796,-0.0015 0.315498,0.04364 0.436199,0.135688 0.12072,0.09206 0.219295,0.217075 0.295692,0.374898 0.07641,0.157841 0.132863,0.345908 0.170521,0.563737 0.03766,0.2124 0.05626,0.443537 0.0558,0.69397 -5.8e-4,0.315793 -0.04149,0.647474 -0.121441,0.995683 -0.07461,0.34268 -0.175148,0.658562 -0.30049,0.946943 -0.125366,0.282958 -0.270619,0.519921 -0.435805,0.711051 -0.165256,0.185721 -0.335211,0.279207 -0.511529,0.28105 -0.202243,0.0021 -0.376513,-0.0389 -0.523509,-0.12342 -0.147077,-0.08993 -0.266539,-0.20693 -0.358595,-0.351716 -0.09217,-0.150196 -0.162,-0.32561 -0.209266,-0.525544 -0.04727,-0.199935 -0.07405,-0.413691 -0.08034,-0.641786 -0.0091,-0.331241 0.02312,-0.677258 0.09925,-1.037827 0.07616,-0.36068 0.186613,-0.689599 0.331633,-0.986303 0.144882,-0.302098 0.316737,-0.549807 0.515649,-0.74327 0.198875,-0.193428 0.411684,-0.291216 0.636232,-0.293154 z m 8.339113,0.279047 c -0.224959,0.78977 -0.446602,1.579938 -0.664825,2.370477 -0.03332,0.173191 -0.09661,0.387655 -0.188893,0.644526 -0.08689,0.257138 -0.196765,0.504602 -0.32931,0.742394 -0.132536,0.23778 -0.28337,0.438933 -0.452243,0.603569 -0.168895,0.164656 -0.349728,0.241341 -0.544431,0.230035 -0.121036,-0.007 -0.219561,-0.04273 -0.295382,-0.107107 -0.07553,-0.06982 -0.134403,-0.15498 -0.176896,-0.255698 -0.04221,-0.106168 -0.07111,-0.222654 -0.08604,-0.349209 -0.0094,-0.131741 -0.01053,-0.265563 -0.0038,-0.401929 0.01187,-0.239967 0.05383,-0.495093 0.126393,-0.764735 0.07791,-0.269389 0.179982,-0.534963 0.30729,-0.796145 0.1276,-0.266645 0.276771,-0.518085 0.44811,-0.754581 0.171341,-0.236498 0.355902,-0.444386 0.553295,-0.623952 0.202849,-0.179225 0.415345,-0.316745 0.636477,-0.411686 0.221481,-0.10039 0.445056,-0.1421 0.670242,-0.125962 -1e-6,1e-6 -1e-6,2e-6 -2e-6,3e-6 z"
         inkscape:path-effect="#path-effect1201"
         inkscape:original-d="m 22.279779,15.076944 c -0.920179,0 -1.793928,0.122401 -2.621545,0.367419 -0.822173,0.245018 -1.584297,0.588361 -2.286682,1.029395 -0.696941,0.435587 -1.325887,0.955216 -1.886707,1.559594 -0.56082,0.598934 -1.040164,1.257903 -1.437638,1.976624 -0.392029,0.718721 -0.694056,1.483668 -0.906405,2.29495 -0.206904,0.805839 -0.310575,1.630833 -0.310575,2.474785 0,0.468256 0.03567,0.939131 0.106453,1.412833 0.07623,0.473702 0.185029,0.9338 0.326595,1.380278 0.147011,0.441033 0.32946,0.854683 0.547254,1.241268 0.217794,0.386584 0.471066,0.724281 0.759643,1.012858 0.294022,0.288577 0.620425,0.514648 0.979786,0.677994 0.364805,0.168791 0.765372,0.253215 1.20096,0.253215 0.588044,0 1.083295,-0.174495 1.486214,-0.522966 0.408364,-0.34847 0.74606,-0.851675 1.012858,-1.510502 0.272243,-0.658827 0.489845,-1.459444 0.65319,-2.401403 0.163346,-0.947405 0.299347,-2.017201 0.408244,-3.209624 h 0.514697 c 0.21235,0 0.389151,0.09802 0.530717,0.294039 0.141566,0.196015 0.264484,0.454417 0.367936,0.775664 0.103452,0.321246 0.19583,0.688966 0.277503,1.102775 0.08712,0.408363 0.179495,0.82766 0.277502,1.257804 0.09801,0.430143 0.212455,0.851747 0.343132,1.265556 0.130676,0.408363 0.293878,0.77326 0.489892,1.094507 0.196016,0.321246 0.432864,0.580165 0.710551,0.77618 0.283133,0.196014 0.623652,0.294039 1.021127,0.294039 0.353915,0 0.699565,-0.03849 1.037146,-0.114722 0.343025,-0.07623 0.667122,-0.171429 0.972033,-0.285771 0.304912,-0.114342 0.582561,-0.239566 0.833024,-0.375687 0.204318,-0.104333 0.379789,-0.199456 0.538986,-0.289905 0.332975,0.187867 0.727851,0.281636 1.184423,0.281636 0.332137,0 0.644939,-0.05671 0.938961,-0.171049 0.294022,-0.114342 0.563718,-0.26959 0.808736,-0.465604 0.250463,-0.196015 0.470889,-0.427734 0.661459,-0.694532 0.196015,-0.266797 0.359732,-0.5524 0.490409,-0.857312 0.136121,-0.304911 0.239276,-0.621054 0.310059,-0.947745 0.07078,-0.326691 0.106453,-0.650271 0.106453,-0.971517 0,-0.321246 -0.04132,-0.656119 -0.12299,-1.00459 -0.07623,-0.353915 -0.192982,-0.688788 -0.350883,-1.00459 l 0.06511,-0.08992 c 0.196015,0.130677 0.430557,0.293878 0.7028,0.489893 0.272243,0.190569 0.547069,0.395088 0.824756,0.612882 0.196533,0.151179 0.384548,0.305045 0.56534,0.461471 -0.163753,0.355278 -0.295014,0.718329 -0.393775,1.089856 -0.114341,0.430143 -0.171565,0.84944 -0.171565,1.257804 0,0.35936 0.05722,0.683457 0.171565,0.972034 0.114342,0.283132 0.266767,0.525628 0.457337,0.727087 0.19057,0.196014 0.408172,0.348439 0.65319,0.457336 0.250463,0.103453 0.506559,0.15503 0.767912,0.15503 0.245018,0 0.48982,-0.0408 0.734839,-0.122473 0.245017,-0.08167 0.479043,-0.185344 0.702282,-0.310576 0.228684,-0.130676 0.438333,-0.27463 0.628903,-0.432531 0.190569,-0.157901 0.351464,-0.313149 0.482141,-0.465605 0.174235,0.441033 0.38106,0.778729 0.620634,1.012858 0.239573,0.228684 0.538776,0.343131 0.898136,0.343131 0.299467,0 0.599187,-0.07365 0.898653,-0.220658 0.299467,-0.147011 0.579939,-0.326636 0.841292,-0.538985 0.02502,-0.02033 0.04937,-0.04096 0.0739,-0.0615 0.0244,0.09044 0.05428,0.176292 0.0894,0.257349 0.07623,0.1579 0.182205,0.285948 0.318327,0.383955 0.136121,0.09256 0.315746,0.138493 0.538985,0.138493 0.174236,0 0.332307,-0.03798 0.473873,-0.114205 0.147011,-0.08167 0.275059,-0.234097 0.383956,-0.457336 0.375695,-0.756835 0.680544,-1.38578 0.914673,-1.886707 0.239573,-0.50637 0.435621,-0.917198 0.588077,-1.232999 0.152456,-0.315802 0.269727,-0.555474 0.3514,-0.718819 0.08712,-0.163346 0.16307,-0.285747 0.22841,-0.36742 h 0.122473 c -0.08712,0.500926 -0.160765,0.968977 -0.220658,1.404566 -0.02722,0.185125 -0.05442,0.37322 -0.08165,0.563789 -0.02723,0.185126 -0.0516,0.361928 -0.07338,0.530717 -0.02178,0.168791 -0.03821,0.318392 -0.04909,0.449069 -0.01089,0.130676 -0.01602,0.231523 -0.01602,0.302307 0,0.16879 0.008,0.343285 0.02429,0.522965 0.02178,0.17968 0.05976,0.345705 0.114205,0.498161 0.05989,0.147011 0.142011,0.269412 0.245463,0.367419 0.103453,0.09256 0.242277,0.138493 0.416512,0.138493 0.228684,0 0.429862,-0.03798 0.604097,-0.114205 0.174236,-0.08167 0.332307,-0.236921 0.473873,-0.465604 l 1.65778,-4.222482 h 0.122473 c -0.04356,0.39203 -0.07871,0.781304 -0.105936,1.167888 -0.02178,0.381139 -0.03256,0.743213 -0.03256,1.086238 0,0.364805 0.01591,0.702502 0.04857,1.012858 0.03811,0.310358 0.09816,0.580053 0.179834,0.808737 0.08167,0.228683 0.187651,0.408309 0.318327,0.538985 0.136121,0.125232 0.302663,0.187585 0.498678,0.187585 0.397473,0 0.7539,-0.05158 1.069702,-0.155029 0.315802,-0.108897 0.604228,-0.244898 0.86558,-0.408244 0.266798,-0.16879 0.517246,-0.354062 0.751375,-0.555521 0.239574,-0.206905 0.479246,-0.40526 0.71882,-0.59583 l -0.13901,-1.927531 c -0.261353,0.315801 -0.525402,0.598581 -0.7922,0.849044 -0.114342,0.108897 -0.23392,0.215391 -0.359151,0.318844 -0.125232,0.09801 -0.253279,0.184738 -0.383956,0.260966 -0.130676,0.07622 -0.258724,0.139095 -0.383956,0.188102 -0.125232,0.04901 -0.244809,0.07338 -0.359151,0.07338 -0.108897,0 -0.201274,-0.09238 -0.277502,-0.277502 -0.07623,-0.185125 -0.114722,-0.424797 -0.114722,-0.718819 0,-0.375695 0.01925,-0.729815 0.05736,-1.061951 0.03811,-0.337581 0.08174,-0.66963 0.130741,-0.996321 0.04901,-0.326691 0.09263,-0.658741 0.130742,-0.996322 0.03811,-0.33758 0.05684,-0.694007 0.05684,-1.069702 0,-0.245019 -0.08955,-0.433113 -0.269234,-0.56379 -0.174236,-0.136121 -0.389531,-0.204122 -0.645439,-0.204122 -0.228684,0 -0.421909,0.07647 -0.57981,0.228927 -0.1579,0.147011 -0.315972,0.328943 -0.473873,0.546736 -0.163345,0.223239 -0.340147,0.482159 -0.530717,0.77618 -0.185125,0.294023 -0.361927,0.574495 -0.530716,0.841293 -0.163346,0.266797 -0.302171,0.495176 -0.416513,0.685746 -0.114344,0.185126 -0.177215,0.285974 -0.188102,0.302307 l -0.08992,-0.09819 c 0,-0.01089 0.0028,-0.03245 0.0083,-0.06511 0.0054,-0.03267 0.02187,-0.111446 0.04909,-0.236678 0.03811,-0.179679 0.07891,-0.354175 0.122473,-0.522965 0.04356,-0.174235 0.08436,-0.351037 0.122473,-0.530717 0.04356,-0.17968 0.07923,-0.364952 0.106454,-0.555522 0.02723,-0.190569 0.04082,-0.391748 0.04082,-0.604097 0,-0.245019 -0.0816,-0.433113 -0.244946,-0.56379 -0.163346,-0.136121 -0.359394,-0.204122 -0.588078,-0.204122 -0.245018,0 -0.45749,0.07365 -0.63717,0.220658 -0.174235,0.147011 -0.34026,0.331766 -0.498161,0.555005 -0.163345,0.223239 -0.335017,0.482159 -0.514697,0.77618 -0.17968,0.288577 -0.348529,0.566227 -0.506429,0.833024 l -0.391708,0.686263 c -0.103455,0.190572 -0.160679,0.293726 -0.171565,0.310059 l -0.08992,-0.09819 c 0.05445,-0.343026 0.106029,-0.675075 0.155029,-0.996322 0.02178,-0.136121 0.04103,-0.274945 0.05736,-0.416512 0.02178,-0.14701 0.04051,-0.288659 0.05684,-0.42478 0.01631,-0.136122 0.02761,-0.263653 0.03307,-0.383439 0.01089,-0.119787 0.01602,-0.226281 0.01602,-0.318844 0,-0.16879 -0.0051,-0.301968 -0.01602,-0.399975 -0.01089,-0.098 -0.04656,-0.171652 -0.106454,-0.220659 -0.05445,-0.05445 -0.141695,-0.0873 -0.261482,-0.09819 -0.114342,-0.01633 -0.274721,-0.02429 -0.481625,-0.02429 -0.136122,0 -0.247746,0.01078 -0.334863,0.03256 -0.08712,0.01633 -0.163587,0.05431 -0.228927,0.114205 -0.05989,0.05445 -0.114291,0.133743 -0.163297,0.237195 -0.04901,0.103453 -0.100583,0.242277 -0.15503,0.416512 -0.05445,0.16879 -0.114494,0.386392 -0.179834,0.65319 -0.06534,0.266798 -0.130513,0.56087 -0.195853,0.882117 -0.05989,0.321245 -0.119941,0.658942 -0.179834,1.012858 -0.05445,0.34847 -0.103201,0.691297 -0.146761,1.028878 -0.02596,0.201185 -0.04857,0.395911 -0.06873,0.585494 -0.01787,0.02001 -0.03589,0.04027 -0.05374,0.05994 -0.114342,0.125231 -0.23726,0.247633 -0.367937,0.36742 -0.125231,0.114342 -0.252762,0.218012 -0.383439,0.310575 -0.125232,0.09256 -0.250456,0.168517 -0.375687,0.22841 -0.125232,0.05445 -0.245326,0.08165 -0.359668,0.08165 -0.152459,0 -0.253307,-0.07082 -0.302307,-0.212391 -0.04356,-0.147011 -0.06511,-0.348189 -0.06511,-0.604097 0,-0.299467 0.0272,-0.615609 0.08165,-0.947746 0.05445,-0.33758 0.114494,-0.672453 0.179834,-1.00459 0.06534,-0.33758 0.124871,-0.663983 0.179317,-0.979785 0.05445,-0.321246 0.08217,-0.612496 0.08217,-0.873848 0,-0.168791 -0.01643,-0.302485 -0.04909,-0.400493 -0.02723,-0.09801 -0.06803,-0.173963 -0.122473,-0.228409 -0.05445,-0.05445 -0.117319,-0.09012 -0.188102,-0.106454 -0.07078,-0.01633 -0.146737,-0.02429 -0.22841,-0.02429 -0.05989,0 -0.122762,0.0028 -0.188102,0.0083 h -0.179834 c -0.07078,0 -0.141608,-0.0028 -0.21239,-0.0083 -0.06534,-0.01089 -0.130514,-0.03013 -0.195854,-0.05736 -0.06534,-0.02722 -0.119738,-0.07085 -0.163298,-0.130741 -0.04356,-0.05989 -0.09,-0.119424 -0.139009,-0.179317 -0.04356,-0.06534 -0.100783,-0.122559 -0.171566,-0.171566 -0.07078,-0.04901 -0.16829,-0.07338 -0.293522,-0.07338 -0.375695,0 -0.746238,0.0816 -1.111043,0.244946 -0.359361,0.1579 -0.702187,0.372679 -1.028878,0.644922 -0.326691,0.272242 -0.629234,0.590692 -0.906921,0.955497 -0.10621,0.142321 -0.206354,0.288954 -0.301791,0.438733 -0.147351,-0.164816 -0.299627,-0.327096 -0.457336,-0.487309 -0.337581,-0.34847 -0.705302,-0.656143 -1.102775,-0.922941 -0.39203,-0.272242 -0.81415,-0.487538 -1.266073,-0.645439 -0.451922,-0.163345 -0.936396,-0.244946 -1.453658,-0.244946 -0.604378,0 -1.1489,0.111624 -1.633492,0.334863 -0.484591,0.217794 -0.895419,0.519821 -1.233,0.906405 -0.332135,0.38114 -0.588231,0.833283 -0.767911,1.35599 -0.17968,0.51726 -0.269751,1.075383 -0.269751,1.674316 0,0.435588 0.04927,0.865662 0.147278,1.29036 0.05546,0.227685 0.127682,0.442794 0.216007,0.645439 -0.135578,0.08355 -0.27242,0.160311 -0.411861,0.22841 -0.228683,0.11434 -0.454756,0.204411 -0.677995,0.269751 -0.217794,0.05989 -0.41949,0.0894 -0.604614,0.0894 -0.20146,0 -0.361838,-0.05953 -0.481625,-0.179317 -0.119786,-0.125231 -0.220633,-0.288433 -0.302307,-0.489893 -0.07623,-0.206904 -0.144228,-0.443753 -0.204122,-0.710551 -0.05445,-0.272242 -0.117319,-0.555538 -0.188102,-0.84956 -0.07078,-0.294023 -0.157513,-0.593742 -0.260966,-0.898653 -0.09801,-0.304912 -0.234525,-0.593338 -0.40876,-0.865581 -0.168791,-0.277687 -0.380746,-0.528136 -0.636654,-0.751375 -0.255908,-0.223239 -0.574874,-0.405687 -0.956014,-0.547253 0.626158,-0.03811 1.189926,-0.125361 1.690853,-0.261483 0.500926,-0.141566 0.947424,-0.315544 1.339453,-0.522449 0.39203,-0.206904 0.726902,-0.44093 1.00459,-0.702282 0.283132,-0.261354 0.514334,-0.531049 0.694014,-0.808737 0.17968,-0.283132 0.313375,-0.569251 0.400493,-0.857828 0.08712,-0.288577 0.130741,-0.563403 0.130741,-0.824756 0,-0.402919 -0.06569,-0.775769 -0.19637,-1.118795 -0.130676,-0.343026 -0.310302,-0.653522 -0.538986,-0.931209 -0.223239,-0.283133 -0.492417,-0.533582 -0.808219,-0.751376 -0.310356,-0.217794 -0.648053,-0.400242 -1.012858,-0.547253 -0.364805,-0.147011 -0.748949,-0.258635 -1.151868,-0.334863 -0.402919,-0.07623 -0.808615,-0.114205 -1.21698,-0.114205 z m -0.146761,1.829345 c 0.490037,0 0.920111,0.05722 1.290361,0.171566 0.37025,0.108897 0.680746,0.258499 0.931209,0.449068 0.250463,0.185126 0.438559,0.400421 0.56379,0.645439 0.130676,0.245018 0.195854,0.501114 0.195854,0.767912 0,0.272242 -0.068,0.555022 -0.204122,0.849044 -0.136121,0.288577 -0.37297,0.55545 -0.710551,0.800468 -0.337581,0.245018 -0.794855,0.449536 -1.372009,0.612882 -0.577155,0.157902 -1.309772,0.244633 -2.197282,0.260966 0.04901,-0.446478 0.100582,-0.838575 0.155029,-1.176156 0.05987,-0.343025 0.09272,-0.617851 0.09818,-0.824755 v -0.07338 c 0,-0.19057 -0.04645,-0.345818 -0.139009,-0.465605 -0.08712,-0.125231 -0.266743,-0.187585 -0.538986,-0.187585 -0.206904,0 -0.383705,0.04593 -0.530717,0.138493 -0.141565,0.08712 -0.263966,0.204388 -0.367419,0.351399 -0.103451,0.141566 -0.187875,0.301944 -0.253215,0.481625 -0.0599,0.174235 -0.106342,0.34873 -0.139009,0.522965 -0.03267,0.174235 -0.05705,0.337437 -0.07338,0.489893 -0.01087,0.152456 -0.01934,0.272033 -0.0248,0.359151 l -0.0078,0.171566 c -0.03267,0 -0.103493,-0.0051 -0.21239,-0.01602 -0.103452,-0.01633 -0.2179,-0.03276 -0.343131,-0.04909 -0.125232,-0.02178 -0.245327,-0.03821 -0.359668,-0.04909 -0.114343,-0.01633 -0.190297,-0.02429 -0.22841,-0.02429 -0.08712,0 -0.157944,0.02438 -0.21239,0.07338 -0.049,0.04356 -0.08698,0.09796 -0.114205,0.163297 -0.02723,0.06534 -0.04647,0.136162 -0.05736,0.21239 -0.0055,0.07623 -0.0083,0.141407 -0.0083,0.195854 0,0.228684 0.1088,0.430379 0.326595,0.604614 0.223238,0.174236 0.547334,0.361814 0.972033,0.563273 0,0.125232 -0.0028,0.307681 -0.0083,0.547254 -0.0054,0.234128 -0.01904,0.503824 -0.04082,0.808736 -0.01634,0.304911 -0.04071,0.631314 -0.07338,0.979785 -0.03267,0.34847 -0.0763,0.694637 -0.130741,1.037663 -0.05445,0.343025 -0.122449,0.675075 -0.204122,0.996321 -0.08167,0.315801 -0.176874,0.596274 -0.285771,0.841293 -0.108897,0.239573 -0.234121,0.432799 -0.375687,0.579809 -0.141566,0.141567 -0.304768,0.21239 -0.489893,0.21239 -0.364805,0 -0.678125,-0.1088 -0.939477,-0.326595 -0.255803,-0.223241 -0.465451,-0.512184 -0.628797,-0.8661 -0.163345,-0.353915 -0.282923,-0.751142 -0.359151,-1.192175 -0.07623,-0.446478 -0.114722,-0.890152 -0.114722,-1.331185 0,-0.571709 0.05209,-1.173455 0.155547,-1.805058 0.108897,-0.631602 0.280052,-1.254902 0.51418,-1.87017 0.234129,-0.615268 0.539495,-1.203414 0.91519,-1.764233 0.375695,-0.56082 0.830145,-1.053765 1.363741,-1.478463 0.533595,-0.424698 1.151764,-0.762395 1.85415,-1.012858 0.707831,-0.250463 1.510755,-0.375688 2.409155,-0.375688 z m 8.069275,6.01152 c 0.168791,0 0.313262,0.04593 0.433049,0.138493 0.119786,0.09256 0.217811,0.217787 0.294038,0.375687 0.07623,0.157901 0.132936,0.345996 0.171049,0.56379 0.03811,0.21235 0.05736,0.443552 0.05736,0.694015 0,0.315801 -0.0408,0.64785 -0.122473,0.996321 -0.07623,0.343026 -0.179899,0.659169 -0.310575,0.947746 -0.130677,0.283132 -0.283101,0.519981 -0.457337,0.710551 -0.174235,0.185124 -0.35386,0.277502 -0.538985,0.277502 -0.212349,0 -0.394797,-0.04362 -0.547253,-0.130741 -0.152456,-0.09256 -0.274857,-0.21214 -0.36742,-0.359151 -0.09256,-0.152456 -0.160562,-0.329775 -0.204122,-0.531234 -0.04356,-0.20146 -0.06511,-0.416238 -0.06511,-0.644922 0,-0.332135 0.04311,-0.677785 0.130225,-1.037146 0.08712,-0.35936 0.207212,-0.686279 0.359668,-0.980302 0.152456,-0.299466 0.329257,-0.544269 0.530717,-0.734839 0.201459,-0.190569 0.413931,-0.28577 0.637169,-0.28577 z m 8.273397,0 -0.498161,2.400887 c -0.02178,0.174235 -0.07105,0.391837 -0.147278,0.65319 -0.07078,0.261352 -0.165983,0.514625 -0.285771,0.759643 -0.119786,0.245019 -0.261435,0.454667 -0.42478,0.628903 -0.163346,0.174235 -0.345277,0.261482 -0.546736,0.261482 -0.125232,0 -0.228903,-0.03002 -0.310576,-0.08992 -0.08168,-0.06534 -0.146854,-0.146939 -0.195853,-0.244946 -0.049,-0.103453 -0.08467,-0.2179 -0.106454,-0.343131 -0.01633,-0.130677 -0.02429,-0.263855 -0.02429,-0.399976 0,-0.239574 0.03002,-0.495669 0.08992,-0.767912 0.06534,-0.272243 0.154892,-0.541938 0.269234,-0.808736 0.114342,-0.272242 0.250344,-0.530645 0.408244,-0.775663 0.157901,-0.245019 0.329572,-0.462621 0.514697,-0.65319 0.19057,-0.19057 0.392266,-0.340688 0.604615,-0.449585 0.212349,-0.114342 0.429951,-0.171049 0.65319,-0.171049 z"
         class="UnoptimicedTransforms"
         transform="translate(0.29977565,6.3849747)" />
      <path
         id="text953"
         style="font-style:normal;font-variant:normal;font-weight:normal;font-stretch:normal;font-size:16.7266px;font-family:Pacifico;-inkscape-font-specification:'Pacifico, Normal';font-variant-ligatures:normal;font-variant-caps:normal;font-variant-numeric:normal;font-variant-east-asian:normal;fill:#00a495;fill-opacity:1;fill-rule:evenodd;stroke:#000000;stroke-width:0;stroke-linecap:round"
         d="m 24.85142,36.176599 c -0.482182,0 -0.949456,0.01136 -1.401502,0.03397 -0.452046,0.0226 -0.875823,0.06415 -1.271364,0.124419 -0.39554,0.06027 -0.758954,0.144956 -1.090454,0.254201 -0.327734,0.105477 -0.61037,0.241114 -0.847695,0.406865 -0.233557,0.165749 -0.416241,0.367252 -0.548088,0.604576 -0.128079,0.233557 -0.191991,0.508381 -0.191991,0.824813 0.0075,0.135614 0.04517,0.256339 0.112978,0.361816 0.05651,0.09041 0.146693,0.17314 0.271005,0.248481 0.124313,0.07534 0.299541,0.112979 0.525563,0.112979 0.226023,0 0.399298,-0.03568 0.519844,-0.107259 0.124313,-0.07534 0.214856,-0.156475 0.271362,-0.243117 0.05651,-0.09041 0.08828,-0.17314 0.09582,-0.248481 0.0113,-0.07534 0.01716,-0.116885 0.01716,-0.124419 0,-0.143148 0.03568,-0.267423 0.107259,-0.3729 0.07534,-0.105477 0.175294,-0.195664 0.299606,-0.271005 0.12808,-0.07534 0.27508,-0.137657 0.44083,-0.186628 0.169517,-0.04897 0.350248,-0.08856 0.542367,-0.118699 0.195887,-0.0339 0.395436,-0.06018 0.598856,-0.07901 0.207188,-0.01884 0.410644,-0.0357 0.610298,-0.05077 -0.22979,0.71574 -0.444609,1.36534 -0.644262,1.949233 -0.195887,0.583893 -0.378571,1.118985 -0.548088,1.604935 -0.169517,0.482182 -0.323973,0.924777 -0.463354,1.327852 -0.139381,0.403074 -0.263655,0.785307 -0.3729,1.146943 -0.109245,0.35787 -0.205291,0.702466 -0.288166,1.033967 -0.07911,0.3315 -0.14302,0.66864 -0.191991,1.011441 -0.0226,0.08664 -0.03396,0.165823 -0.03396,0.237398 0,0.226023 0.06977,0.389888 0.209152,0.491598 0.139381,0.101711 0.316205,0.152664 0.530927,0.152664 0.07157,0 0.148802,-0.02273 0.231676,-0.06793 0.08288,-0.04144 0.162057,-0.101443 0.237398,-0.180551 0.07911,-0.07911 0.14888,-0.171606 0.209153,-0.277083 0.06404,-0.109244 0.111086,-0.228016 0.141223,-0.356096 0.07157,-0.278762 0.162117,-0.611995 0.271362,-1.000001 0.113012,-0.388006 0.233379,-0.809829 0.361459,-1.265642 0.12808,-0.45958 0.25981,-0.939813 0.395424,-1.440831 0.139381,-0.504785 0.271469,-1.009696 0.395781,-1.514481 0.12808,-0.508551 0.244898,-1.006007 0.350376,-1.491957 0.105477,-0.485949 0.192115,-0.93955 0.259922,-1.361459 0.384239,0.01883 0.757062,0.04706 1.118699,0.08473 0.361637,0.03767 0.712092,0.07531 1.051127,0.112978 0.342801,0.03767 0.670532,0.0714 0.983197,0.101538 0.316432,0.03014 0.619483,0.04541 0.909547,0.04541 0.08287,0 0.162056,-0.01722 0.237397,-0.05113 0.07534,-0.03767 0.141206,-0.08667 0.197712,-0.146943 0.05651,-0.06027 0.101599,-0.126138 0.135502,-0.197712 0.0339,-0.07157 0.05113,-0.144895 0.05113,-0.220236 0,-0.120546 -0.03764,-0.229909 -0.112977,-0.327852 -0.07157,-0.09794 -0.197803,-0.165762 -0.378621,-0.203432 -0.779779,-0.139381 -1.529691,-0.235427 -2.249197,-0.288166 -0.71574,-0.05274 -1.401024,-0.07901 -2.056491,-0.07901 z m 16.996794,0 c -0.482182,0 -0.949456,0.01136 -1.401502,0.03397 -0.452046,0.0226 -0.875823,0.06415 -1.271363,0.124419 -0.39554,0.06027 -0.758955,0.144956 -1.090455,0.254201 -0.327733,0.105477 -0.610371,0.241114 -0.847694,0.406865 -0.233558,0.165749 -0.416241,0.367252 -0.548088,0.604576 -0.12808,0.233557 -0.191991,0.508381 -0.191991,0.824813 0.0075,0.135614 0.04517,0.256339 0.112977,0.361816 0.05651,0.09041 0.14705,0.17314 0.271363,0.248481 0.124312,0.07534 0.299183,0.112979 0.525206,0.112979 0.226023,0 0.399655,-0.03568 0.5202,-0.107259 0.124313,-0.07534 0.2145,-0.156475 0.271005,-0.243117 0.05651,-0.09041 0.08864,-0.17314 0.09618,-0.248481 0.0113,-0.07534 0.0168,-0.116885 0.0168,-0.124419 0,-0.143148 0.03604,-0.267423 0.107615,-0.3729 0.07534,-0.105477 0.174937,-0.195664 0.299249,-0.271005 0.12808,-0.07534 0.27508,-0.137657 0.44083,-0.186628 0.169517,-0.04897 0.350248,-0.08856 0.542368,-0.118699 0.195886,-0.0339 0.395435,-0.06018 0.598856,-0.07901 0.207188,-0.01884 0.410643,-0.0357 0.610296,-0.05077 -0.229789,0.71574 -0.44425,1.36534 -0.643904,1.949233 -0.195886,0.583893 -0.37857,1.118985 -0.548088,1.604935 -0.169517,0.482182 -0.323973,0.924777 -0.463353,1.327852 -0.139381,0.403074 -0.263656,0.785307 -0.3729,1.146943 -0.109245,0.35787 -0.205649,0.702466 -0.288524,1.033967 -0.07911,0.3315 -0.14302,0.66864 -0.191992,1.011441 -0.0226,0.08664 -0.03396,0.165823 -0.03396,0.237398 0,0.226023 0.06977,0.389888 0.209153,0.491598 0.13938,0.101711 0.316561,0.152664 0.531284,0.152664 0.07157,0 0.148801,-0.02273 0.231676,-0.06793 0.08288,-0.04144 0.161699,-0.101443 0.23704,-0.180551 0.07911,-0.07911 0.14888,-0.171606 0.209153,-0.277083 0.06404,-0.109244 0.111087,-0.228016 0.141223,-0.356096 0.07157,-0.278762 0.162118,-0.611995 0.271362,-1.000001 0.113011,-0.388006 0.23338,-0.809829 0.361459,-1.265642 0.12808,-0.45958 0.260168,-0.939813 0.395782,-1.440831 0.13938,-0.504785 0.271111,-1.009696 0.395424,-1.514481 0.128079,-0.508551 0.244898,-1.006007 0.350375,-1.491957 0.105478,-0.485949 0.192115,-0.93955 0.259922,-1.361459 0.384238,0.01883 0.757062,0.04706 1.118699,0.08473 0.361637,0.03767 0.712093,0.07531 1.051127,0.112978 0.342802,0.03767 0.670532,0.0714 0.983197,0.101538 0.316432,0.03014 0.619841,0.04541 0.909904,0.04541 0.08288,0 0.161699,-0.01722 0.23704,-0.05113 0.07534,-0.03767 0.141564,-0.08667 0.198069,-0.146943 0.05651,-0.06027 0.101599,-0.126138 0.135503,-0.197712 0.0339,-0.07157 0.05077,-0.144895 0.05077,-0.220236 0,-0.120546 -0.03764,-0.229909 -0.112979,-0.327852 -0.07157,-0.09794 -0.197801,-0.165762 -0.37862,-0.203432 -0.77978,-0.139381 -1.529333,-0.235427 -2.24884,-0.288166 -0.715739,-0.05274 -1.401381,-0.07901 -2.056848,-0.07901 z m -10.374336,0.429389 c -0.323966,0 -0.632879,0.06391 -0.926708,0.191992 -0.290063,0.124312 -0.546425,0.294037 -0.768682,0.50876 -0.222256,0.214722 -0.399079,0.461317 -0.530926,0.740079 -0.131846,0.278761 -0.198069,0.570808 -0.198069,0.875939 0,0.177051 0.02077,0.365595 0.06221,0.565249 0.0452,0.195886 0.100065,0.391529 0.164105,0.587415 0.06781,0.195887 0.139174,0.382477 0.214515,0.559529 0.07911,0.177051 0.154383,0.331507 0.225957,0.463354 -0.384239,0.207187 -0.719426,0.429462 -1.005722,0.666786 -0.286295,0.237324 -0.525435,0.481966 -0.717555,0.734359 -0.192119,0.252392 -0.337166,0.504848 -0.435109,0.75724 -0.09418,0.252393 -0.141223,0.497392 -0.141223,0.734716 0,0.271228 0.05841,0.52528 0.175188,0.762604 0.120546,0.233556 0.29737,0.438966 0.530927,0.616018 0.233557,0.177051 0.52365,0.316595 0.870218,0.418305 0.350336,0.10171 0.755295,0.152306 1.214874,0.152306 0.354103,0 0.668875,-0.03764 0.943869,-0.112978 0.278762,-0.07534 0.517902,-0.158072 0.717555,-0.248481 0.22979,-0.105477 0.433246,-0.226203 0.610298,-0.361817 0,0.0038 0.03373,0.04531 0.101537,0.12442 0.06781,0.07534 0.146988,0.163931 0.237397,0.265642 0.09041,0.10171 0.180954,0.201663 0.271363,0.299607 0.09418,0.09418 0.165544,0.161994 0.214515,0.203432 0.06781,0.05651 0.145035,0.08473 0.231677,0.08473 0.09041,0 0.182907,-0.02823 0.277083,-0.08473 0.09794,-0.05651 0.186534,-0.126278 0.265642,-0.209153 0.07911,-0.08664 0.14302,-0.179139 0.191992,-0.277083 0.05274,-0.10171 0.07901,-0.195803 0.07901,-0.282445 0,-0.09794 -0.03018,-0.175171 -0.09045,-0.231677 -0.04144,-0.03767 -0.105349,-0.09022 -0.191992,-0.158027 -0.08287,-0.06781 -0.167559,-0.135625 -0.254201,-0.203432 -0.08664,-0.06781 -0.16387,-0.126216 -0.231676,-0.175188 -0.06781,-0.05274 -0.107398,-0.07937 -0.118699,-0.07937 0.301364,-0.244858 0.514229,-0.489501 0.638541,-0.734359 0.12808,-0.248625 0.191992,-0.487765 0.191992,-0.717555 0,-0.184585 -0.03373,-0.361766 -0.101538,-0.531284 -0.06781,-0.173284 -0.154444,-0.333242 -0.259921,-0.480157 -0.105477,-0.146915 -0.224249,-0.279003 -0.356096,-0.395781 -0.131847,-0.120546 -0.260028,-0.222095 -0.38434,-0.30497 -0.124313,-0.08664 -0.239178,-0.152508 -0.344656,-0.197712 -0.105477,-0.04897 -0.186254,-0.07365 -0.24276,-0.07365 -0.0075,0 -0.0228,0.0094 -0.04541,0.02824 -0.0226,0.01507 -0.04692,0.03389 -0.07329,0.05649 l -0.06221,0.06221 c -0.01883,0.01884 -0.02824,0.0302 -0.02824,0.03396 0.10171,0.161984 0.195804,0.299574 0.282446,0.412585 0.08664,0.109245 0.159963,0.212748 0.220235,0.310691 0.06404,0.09794 0.113041,0.197896 0.146944,0.299607 0.0339,0.10171 0.05113,0.224031 0.05113,0.367179 0,0.06404 -0.0039,0.127952 -0.01144,0.191992 -0.0038,0.06027 -0.01708,0.120635 -0.03968,0.180908 -0.0226,0.06027 -0.05829,0.120635 -0.107258,0.180908 -0.0452,0.06027 -0.107521,0.118682 -0.186629,0.175188 -0.124312,-0.214722 -0.259592,-0.436996 -0.406507,-0.666786 -0.143148,-0.233558 -0.282691,-0.455832 -0.418305,-0.666786 -0.131847,-0.210955 -0.252573,-0.401095 -0.361817,-0.570612 -0.105477,-0.173284 -0.180752,-0.305373 -0.225957,-0.395782 0.365404,-0.222256 0.67627,-0.451986 0.932429,-0.68931 0.256159,-0.237325 0.465118,-0.474511 0.6271,-0.711835 0.161984,-0.241091 0.278802,-0.476682 0.350376,-0.706472 0.07157,-0.233557 0.107615,-0.455831 0.107615,-0.666786 0,-0.241091 -0.0474,-0.463366 -0.141579,-0.666786 -0.09041,-0.203421 -0.218234,-0.380245 -0.383984,-0.530927 -0.16575,-0.150682 -0.365656,-0.2675 -0.599213,-0.350375 -0.229791,-0.08664 -0.481889,-0.13014 -0.756883,-0.13014 z m 0.06757,1.19807 c 0.146915,0 0.269594,0.01491 0.367537,0.04505 0.09794,0.02637 0.175171,0.06596 0.231677,0.118698 0.05651,0.05274 0.09574,0.116651 0.118341,0.191992 0.02637,0.07534 0.03969,0.160383 0.03969,0.254559 0,0.169517 -0.03018,0.333382 -0.09045,0.491598 -0.0565,0.158217 -0.137282,0.314268 -0.24276,0.468717 -0.105477,0.154449 -0.235612,0.310858 -0.390061,0.469075 -0.150682,0.154448 -0.318454,0.31636 -0.503039,0.485877 -0.0075,0 -0.0299,-0.0545 -0.06757,-0.163747 -0.03767,-0.113011 -0.07921,-0.248648 -0.124419,-0.406865 -0.0452,-0.161982 -0.08675,-0.329397 -0.124419,-0.502681 -0.0339,-0.173284 -0.05077,-0.322238 -0.05077,-0.44655 0,-0.143148 0.02823,-0.274879 0.08473,-0.395424 0.05651,-0.124313 0.126278,-0.231722 0.209153,-0.322132 0.08664,-0.09041 0.178782,-0.160181 0.276725,-0.209152 0.09794,-0.05274 0.186534,-0.07901 0.265642,-0.07901 z m -1.519844,4.158745 c 0.165751,0.301364 0.312751,0.559322 0.44083,0.774044 0.12808,0.210955 0.250401,0.405002 0.36718,0.582053 0.120545,0.173284 0.242866,0.341056 0.367179,0.503039 0.124313,0.158216 0.267406,0.333444 0.429388,0.525564 -0.20342,0.131846 -0.421788,0.240851 -0.655345,0.327494 -0.233557,0.08288 -0.472696,0.124419 -0.717554,0.124419 -0.237325,0 -0.442734,-0.02627 -0.616018,-0.07901 -0.173285,-0.05274 -0.316378,-0.124464 -0.429389,-0.214873 -0.113012,-0.09041 -0.197696,-0.195865 -0.254202,-0.316411 -0.05274,-0.124312 -0.07937,-0.257996 -0.07937,-0.401144 0,-0.146915 0.02468,-0.297821 0.07365,-0.45227 0.05274,-0.158217 0.128013,-0.316222 0.225957,-0.474438 0.09794,-0.158216 0.218668,-0.312672 0.361817,-0.463354 0.143147,-0.154449 0.305059,-0.299496 0.485877,-0.435109 z" />
    </g>
  </g>
</svg>
